{"title":"masterchef australia s05e60 pdtv.x264-RWN","uid":8852126,"size":335996345,"categoryP":"video","categoryS":"tv_shows","magnet":"?xt=urn:btih:bddcb3c526825949a9ba1329d4f5120caafef6d9&amp;dn=masterchef+australia+s05e60+pdtv.x264-RWN&amp;tr=udp%3A%2F%2Ftracker.openbittorrent.com%3A80&amp;tr=udp%3A%2F%2Fopen.demonii.com%3A1337&amp;tr=udp%3A%2F%2Ftracker.coppersurfer.tk%3A6969&amp;tr=udp%3A%2F%2Fexodus.desync.com%3A6969","seeders":1,"leechers":0,"uploader":"rawenkoye","files":1,"time":1377559606,"description":"\n\n\n      Format : MPEG-4\n      Format profile : Base Media\n      Codec ID : isom\n      File size : 320 MiB\n      Duration : 42mn 59s\n      Overall bit rate mode : Variable\n      Overall bit rate : 1 042 Kbps\n      Encoded date : UTC 2013-08-26 15:51:43\n      Tagged date : UTC 2013-08-26 15:51:43\n      Writing application : vlc 2.0.7 stream output\n   Video #2\n      ID : 2\n      Format : AVC\n      Format/Info : Advanced Video Codec\n      Format profile : &lt;a class=&quot;__cf_email__&quot; href=&quot;/cdn-cgi/l/email-protection&quot; data-cfemail=&quot;367e5f515e767a051806&quot;&gt;[email&amp;#160;protected]&lt;/a&gt;&lt;script cf-hash='f9e31' type=&quot;text/javascript&quot;&gt;\n/* &lt;![CDATA[ */!function(){try{var t=&quot;currentScript&quot;in document?document.currentScript:function(){for(var t=document.getElementsByTagName(&quot;script&quot;),e=t.length;e--;)if(t[e].getAttribute(&quot;cf-hash&quot;))return t[e]}();if(t&amp;&amp;t.previousSibling){var e,r,n,i,c=t.previousSibling,a=c.getAttribute(&quot;data-cfemail&quot;);if(a){for(e=&quot;&quot;,r=parseInt(a.substr(0,2),16),n=2;a.length-n;n+=2)i=parseInt(a.substr(n,2),16)^r,e+=String.fromCharCode(i);e=document.createTextNode(e),c.parentNode.replaceChild(e,c)}}}catch(u){}}();/* ]]&gt; */&lt;/script&gt;\n      Format settings, CABAC : Yes\n      Format settings, ReFrames : 4 frames\n      Codec ID : avc1\n      Codec ID/Info : Advanced Video Coding\n      Duration : 42mn 59s\n      Source duration : 42mn 59s\n      Bit rate : 798 Kbps\n      Width : 640 pixels\n      Height : 352 pixels\n      Display aspect ratio : 16:9\n      Frame rate : 25.000 fps\n      Color space : YUV\n      Chroma subsampling : 4:2:0\n      Bit depth : 8 bits\n      Scan type : Progressive\n      Bits/(Pixel*Frame) : 0.142\n      Stream size : 245 MiB (77%)\n      Source stream size : 245 MiB (77%)\n      Language : English\n      Encoded date : UTC 2013-08-26 15:51:43\n      Tagged date : UTC 2013-08-26 15:51:43\n      mdhd_Duration : 2579799\n   Audio #1\n      ID : 1\n      Format : MPEG Audio\n      Format version : Version 1\n      Format profile : Layer 3\n      Mode : Joint stereo\n      Codec ID : 6B\n      Duration : 42mn 59s\n      Source duration : 42mn 59s\n      Bit rate mode : Variable\n      Bit rate : 238 Kbps\n      Minimum bit rate : 32.0 Kbps\n      Maximum bit rate : 320 Kbps\n      Channel(s) : 2 channels\n      Sampling rate : 48.0 KHz\n      Compression mode : Lossy\n      Stream size : 73.3 MiB (23%)\n      Source stream size : 73.3 MiB (23%)\n      Writing library : LAME3.98r\n      Encoding settings : -m j -V 0 -q 0 -lowpass 19.5 --vbr-new -b 32\n      Language : English\n      Encoded date : UTC 2013-08-26 15:51:43\n      Tagged date : UTC 2013-08-26 15:51:43\n      mdhd_Duration : 2579712","torrent":{"xt":"urn:btih:bddcb3c526825949a9ba1329d4f5120caafef6d9","amp;dn":"masterchef+australia+s05e60+pdtv.x264-RWN","amp;tr":["udp%3A%2F%2Ftracker.openbittorrent.com%3A80","udp%3A%2F%2Fopen.demonii.com%3A1337","udp%3A%2F%2Ftracker.coppersurfer.tk%3A6969","udp%3A%2F%2Fexodus.desync.com%3A6969"],"infoHash":"bddcb3c526825949a9ba1329d4f5120caafef6d9","infoHashBuffer":{"type":"Buffer","data":[189,220,179,197,38,130,89,73,169,186,19,41,212,245,18,12,170,254,246,217]},"announce":[],"urlList":[]}}